# xmcd
#
# Track frame offsets: 
#        150
#        11106
#        19032
#        26938
#        37707
#        49677
#        57886
#        69867
#        80419
#        89508
#        100802
#        110114
#        122682
#        138106
#        160494
#        176843
#        197149
#        211611
#        226272
#        241019
#        255494
#        268569
#        279657
#        296607
#        312067
#        331186
#
# Disc length: 4677 seconds
#
# Revision: 0
# Processed by: cddbd v1.5.2PL0 Copyright (c) Steve Scherf et al.
# Submitted via: ExactAudioCopy v0.99pb3
#
DISCID=6112431a
DTITLE=Chas and Dave - Country Pies, Black Claws and Oily Rags
DYEAR=2007
DGENRE=
TTITLE0=I'm Coming Home
TTITLE1=Grits Ain't Groceries
TTITLE2=End Of The Road
TTITLE3=Spell It Out For Me
TTITLE4=Swinging Doors
TTITLE5=I'll Sail my Ship Alone
TTITLE6=Country Pie
TTITLE7=They'll Never Take Her Love From Me
TTITLE8=How Many Times
TTITLE9=If You Wanna Be My Woman
TTITLE10=Hillbilly Fever
TTITLE11=The Right String Baby But The Wrong Yo-Yo
TTITLE12=What A Stupid Thing To Do
TTITLE13=Another Useless Day
TTITLE14=Come Up And See Me Any Time
TTITLE15=Boiled Beef And Carrots
TTITLE16=Time To Kill
TTITLE17=Baby Doll
TTITLE18=Holy Cow
TTITLE19=Silver Dollar
TTITLE20=Mailman Bring Me No More Blues
TTITLE21=Barefoot Days
TTITLE22=Jody And The Kid
TTITLE23=Country Boy Picker
TTITLE24=Clive Of India
TTITLE25=Mama and Papa Jazz
EXTD=
EXTT0=
EXTT1=
EXTT2=
EXTT3=
EXTT4=
EXTT5=
EXTT6=
EXTT7=
EXTT8=
EXTT9=
EXTT10=
EXTT11=
EXTT12=
EXTT13=
EXTT14=
EXTT15=
EXTT16=
EXTT17=
EXTT18=
EXTT19=
EXTT20=
EXTT21=
EXTT22=
EXTT23=
EXTT24=
EXTT25=
PLAYORDER=
